# xmcd CD database file
#
# Track frame offsets:
#	150
#	18355
#	39438
#	57650
#	73238
#	96928
#	115775
#	138238
#	161495
#	171008
#	188128
#	204845
#
# Disc length: 2973 seconds
#
# Revision: 0
# Processed by: cddbd v1.4PL0 Copyright (c) Steve Scherf et al.
# Submitted via: CDex 1.40Beta9
#
DISCID=a10b9b0c
DTITLE=Cinnamon - Evangeline
DYEAR=1995
DGENRE=Country
TTITLE0=Evangeline
TTITLE1=Emmylou you're still the queen
TTITLE2=Mit zwei Silwe
TTITLE3=Miles away
TTITLE4=Ke Büremaidle
TTITLE5=Bandgirl
TTITLE6=Lucky for the first time
TTITLE7=The sound of a beatlebyrd
TTITLE8=S' verschlofene Bieble
TTITLE9=D'r alemannish' Boogie
TTITLE10=Every time I cry
TTITLE11=Song for the children
EXTD=YEAR: 1995 ID3G: 2
EXTT0=
EXTT1=
EXTT2=
EXTT3=
EXTT4=
EXTT5=
EXTT6=
EXTT7=
EXTT8=
EXTT9=
EXTT10=
EXTT11=
PLAYORDER=
